<svg id="todo-logo" width="280" height="280" viewBox="0 0 280 280" fill="none" xmlns="http://www.w3.org/2000/svg"><rect x="20" y="20" width="240" height="240" rx="60" fill="url(#outerGlow)" opacity="0.3"></rect><rect x="35" y="35" width="210" height="210" rx="52" fill="url(#mainGradient)"></rect><ellipse cx="140" cy="140" rx="90" ry="80" fill="url(#highlight)" opacity="0.15"></ellipse><rect x="95" y="75" width="90" height="130" rx="8" fill="white" opacity="0.95"></rect><rect x="125" y="70" width="30" height="12" rx="4" fill="white" opacity="0.95"></rect><rect x="130" y="67" width="20" height="8" rx="3" fill="url(#clipGradient)"></rect><rect x="105" y="95" width="12" height="12" rx="3" fill="url(#checkGradient)"></rect><path d="M 108 101 L 110 103 L 114 98" stroke="white" stroke-width="1.5" stroke-linecap="round" stroke-linejoin="round" fill="none"></path><rect x="122" y="97" width="50" height="3" rx="1.5" fill="#94A3B8" opacity="0.6"></rect><rect x="105" y="120" width="12" height="12" rx="3" stroke="#94A3B8" stroke-width="1.5" fill="none" opacity="0.4"></rect><rect x="122" y="124" width="50" height="3" rx="1.5" fill="#94A3B8" opacity="0.4"></rect><rect x="105" y="145" width="12" height="12" rx="3" stroke="#94A3B8" stroke-width="1.5" fill="none" opacity="0.4"></rect><rect x="122" y="149" width="40" height="3" rx="1.5" fill="#94A3B8" opacity="0.4"></rect><rect x="105" y="170" width="12" height="12" rx="3" stroke="#94A3B8" stroke-width="1.5" fill="none" opacity="0.4"></rect><rect x="122" y="174" width="45" height="3" rx="1.5" fill="#94A3B8" opacity="0.4"></rect><defs><linearGradient id="mainGradient" x1="35" y1="35" x2="245" y2="245" gradientUnits="userSpaceOnUse"><stop offset="0%" stop-color="#3B82F6"></stop><stop offset="50%" stop-color="#2563EB"></stop><stop offset="100%" stop-color="#1D4ED8"></stop></linearGradient><linearGradient id="checkGradient" x1="105" y1="95" x2="117" y2="107" gradientUnits="userSpaceOnUse"><stop offset="0%" stop-color="#3B82F6"></stop><stop offset="100%" stop-color="#1D4ED8"></stop></linearGradient><linearGradient id="clipGradient" x1="130" y1="67" x2="150" y2="75" gradientUnits="userSpaceOnUse"><stop offset="0%" stop-color="#3B82F6"></stop><stop offset="100%" stop-color="#2563EB"></stop></linearGradient><radialGradient id="outerGlow" cx="140" cy="140" r="120"><stop offset="0%" stop-color="#3B82F6"></stop><stop offset="100%" stop-color="#3B82F6" stop-opacity="0"></stop></radialGradient><radialGradient id="highlight" cx="140" cy="120" r="90"><stop offset="0%" stop-color="white"></stop><stop offset="100%" stop-color="white" stop-opacity="0"></stop></radialGradient></defs></svg>