<svg id="todo-logo" width="280" height="280" viewBox="0 0 280 280" fill="none" xmlns="http://www.w3.org/2000/svg"><rect x="20" y="20" width="240" height="240" rx="60" fill="url(#outerGlow)" opacity="0.3"></rect><rect x="35" y="35" width="210" height="210" rx="52" fill="url(#mainGradient)"></rect><ellipse cx="140" cy="140" rx="90" ry="80" fill="url(#highlight)" opacity="0.15"></ellipse><g opacity="0.4"><rect x="120" y="96.5" width="80" height="7" rx="3.5" fill="white"></rect><rect x="120" y="136.5" width="80" height="7" rx="3.5" fill="white"></rect></g><rect x="120" y="176.5" width="80" height="7" rx="3.5" fill="white" opacity="0.7"></rect><rect x="76" y="84" width="32" height="32" rx="7" stroke="white" stroke-width="3.5" fill="none" opacity="0.4"></rect><rect x="76" y="124" width="32" height="32" rx="7" stroke="white" stroke-width="3.5" fill="none" opacity="0.4"></rect><rect x="76" y="164" width="32" height="32" rx="7" fill="white" opacity="0.95"></rect><path d="M 81 180 L 87 186 L 101 171" stroke="url(#checkGradient)" stroke-width="4" stroke-linecap="round" stroke-linejoin="round" fill="none"></path><defs><linearGradient id="mainGradient" x1="35" y1="35" x2="245" y2="245" gradientUnits="userSpaceOnUse"><stop offset="0%" stop-color="#3B82F6"></stop><stop offset="50%" stop-color="#2563EB"></stop><stop offset="100%" stop-color="#1D4ED8"></stop></linearGradient><linearGradient id="checkGradient" x1="74" y1="169" x2="90" y2="181" gradientUnits="userSpaceOnUse"><stop offset="0%" stop-color="#3B82F6"></stop><stop offset="100%" stop-color="#1D4ED8"></stop></linearGradient><radialGradient id="outerGlow" cx="140" cy="140" r="120"><stop offset="0%" stop-color="#3B82F6"></stop><stop offset="100%" stop-color="#3B82F6" stop-opacity="0"></stop></radialGradient><radialGradient id="highlight" cx="140" cy="120" r="90"><stop offset="0%" stop-color="white"></stop><stop offset="100%" stop-color="white" stop-opacity="0"></stop></radialGradient></defs></svg>